<svg width="741" height="563" viewBox="0 0 741 563" fill="none" xmlns="http://www.w3.org/2000/svg">
<path d="M679.986 562.745H141.035C141.035 562.745 35.1612 376.533 129.145 269.677C213.973 173.176 290.988 148.155 389.728 190.914C488.468 233.674 475.95 365.754 561.814 350.001C647.679 334.249 745.569 419.632 679.986 562.745Z" fill="white"/>
<path d="M0 143.165C0 143.165 -3.23983e-06 127.887 39.6625 130.671C39.6625 130.671 41.9895 114.019 68.9804 113.697C95.9713 113.374 99.5553 129.279 99.5553 129.279C99.5553 129.279 128.551 122.846 144.874 143.199L0 143.165Z" fill="white"/>
<path d="M599.642 212.15C599.642 212.15 599.642 205.02 616.73 206.497C616.73 206.497 618.921 191.458 643.262 191.424C662.898 191.424 669.047 205.241 669.047 205.241C669.047 205.241 686.288 203.357 688.496 212.15H599.642Z" fill="white"/>
<path d="M432.176 15.2093C425.65 10.1304 417.482 7.62895 409.228 8.18181C409.228 8.18181 405.61 0 394.382 0C391.48 0.00587279 388.623 0.722194 386.062 2.08634C383.501 3.45049 381.313 5.42092 379.689 7.82534C379.689 7.82534 364.283 8.3176 362.551 15.2093H432.176Z" fill="white"/>
<path d="M638.549 72.2684C648.071 58.9618 644.997 40.4603 631.681 30.9443C618.366 21.4282 599.852 24.5011 590.329 37.8077C580.807 51.1143 583.882 69.6157 597.197 79.1318C610.513 88.6479 629.027 85.575 638.549 72.2684Z" fill="#E8A748"/>
<path d="M691.876 487.734C691.876 487.734 517.175 500.974 555.376 334.826" stroke="#493022" stroke-miterlimit="10"/>
<path d="M618.564 534.177L613.469 549.845C613.469 549.845 620.62 549.539 618.853 554.937H606.963L606.402 535.009L618.564 534.177Z" fill="#402B1D"/>
<path d="M666.397 551.661C670.246 547.793 673.843 543.682 677.166 539.354C674.875 532.65 672.14 526.106 668.979 519.765L655.271 527.336C654.813 527.048 654.66 527.998 654.949 528.456L663.883 542.664C664.287 543.17 664.503 543.8 664.495 544.447C664.407 544.882 664.215 545.29 663.934 545.635L660.537 550.558L658.686 553.307L667.943 559.554C670.746 556.482 668.419 553.443 666.397 551.661Z" fill="#493022"/>
<path d="M721.415 459.964C721.415 459.964 713.941 451.001 702.849 455.279C691.757 459.556 690.466 488.125 682.143 493.455C673.82 498.785 667.416 498.36 662.932 498.36C658.448 498.36 614.641 500.058 614.641 500.058C614.641 500.058 602.479 497.919 595.209 511.787C587.939 525.656 584.864 562.643 584.864 562.643H596.398C596.544 562.007 596.533 561.344 596.367 560.712C596.2 560.081 595.883 559.499 595.442 559.016C595.001 558.534 594.45 558.166 593.835 557.943C593.221 557.72 592.561 557.65 591.913 557.738L600.152 545.109C600.152 545.109 607.116 543.886 617.358 535.569C617.358 535.569 641.139 539.897 677.608 543.089L681.872 562.576H692.335C692.335 562.576 694.22 557.636 687.239 557.246L687.443 542.664C687.443 542.664 704.31 532.632 709.219 520.478C714.128 508.324 719.411 477.821 719.411 477.821L726.12 476.48C730.045 475.695 733.534 473.473 735.904 470.25L740.745 464.122C741.476 463.155 739.59 460.626 738.384 460.575L721.415 459.964Z" fill="#5E412C"/>
<path d="M601.85 506.559C601.85 506.559 582.605 504.369 592.661 480.605C592.661 480.605 576.116 498.836 597.757 510.09L601.85 506.559Z" fill="#5E412C"/>
<path d="M688.122 483.83L716.761 492.012L715.232 499.192L685.116 490.518L688.122 483.83Z" fill="#1A1410"/>
<path d="M701.49 461.186V492.759C701.49 492.759 717.389 490.586 711.512 476.972C705.635 463.358 701.49 461.186 701.49 461.186Z" fill="#8B664E"/>
<path d="M735.751 461.186C735.751 461.186 735.972 467.976 740.847 464.19C740.83 464.19 741.357 458.996 735.751 461.186Z" fill="#1A1410"/>
<path d="M716.014 461.797C716.013 462.157 715.904 462.508 715.702 462.806C715.499 463.104 715.211 463.334 714.876 463.467C714.541 463.599 714.174 463.628 713.823 463.55C713.471 463.472 713.151 463.291 712.903 463.029C712.656 462.767 712.493 462.437 712.436 462.081C712.378 461.726 712.429 461.361 712.581 461.035C712.733 460.708 712.979 460.435 713.288 460.25C713.598 460.065 713.955 459.977 714.315 459.997C714.776 460.019 715.211 460.219 715.527 460.555C715.844 460.89 716.018 461.336 716.014 461.797Z" fill="#1A1410"/>
<path d="M353.038 508.817L362.092 527.217L370.075 535.874C371.859 537.811 372.969 540.273 373.238 542.891C373.507 545.51 372.922 548.146 371.57 550.405L370.262 552.561L317.402 513.332L334.931 495.305L353.038 508.817Z" fill="#263339"/>
<path d="M316.943 513.519L370.211 553.053L373.473 548.571L320.204 509.037L316.943 513.519Z" fill="black"/>
<path d="M334.931 495.288L350.864 472.219L368.275 484.984L353.038 508.8L334.931 495.288Z" fill="white"/>
<path d="M488.944 287.042L443.098 410.516L370.5 503.198L330.922 478.517L394.518 391.352L428.864 286.923L488.944 287.042Z" fill="#4D6E8E"/>
<path d="M530.967 525.622L551.215 529.017L562.884 527.574C565.499 527.247 568.149 527.777 570.437 529.084C572.725 530.391 574.527 532.405 575.573 534.822L576.575 537.147L512.232 559.13L509.412 532.446L530.967 525.622Z" fill="#263339"/>
<path d="M512.13 559.605L576.949 537.47L575.199 532.208L510.38 554.343L512.13 559.605Z" fill="black"/>
<path d="M509.412 532.446L499.951 506.05L520.47 499.362L530.967 525.605L509.412 532.446Z" fill="white"/>
<path d="M481.147 286.872L477.189 308.261L510.431 390.13L541.142 508.528L493.343 521.089L457.231 398.227L410.757 303.508L424.108 287.127L481.147 286.872Z" fill="#7BA1BF"/>
<path d="M489.81 509.037L537.711 495.288" stroke="#88AFCC" stroke-miterlimit="10"/>
<path d="M444.797 305.63L481.147 387.21L513.76 502.163" stroke="#88AFCC" stroke-miterlimit="10"/>
<path d="M429.068 313.506L436.219 331.516L430.885 344.519" stroke="#88AFCC" stroke-miterlimit="10"/>
<path d="M332.689 318.887L342.337 295.513L358.049 297.702L347.569 319.651L332.689 318.887Z" fill="#E48868"/>
<path d="M438.546 180.153C438.546 180.153 409.585 183.785 395.351 201.507L362.347 244.656C344.715 271.646 335.594 302.591 335.594 302.591L357.676 316.171L383.155 261.326L420.048 223.404L438.546 180.153Z" fill="#E8A748"/>
<path d="M335.169 315.186C335.169 315.186 330.838 314.405 326.676 321.823C325.072 324.75 323.818 327.855 322.939 331.075C322.448 332.8 322.549 334.64 323.226 336.302C323.903 337.963 325.118 339.35 326.676 340.241L335.016 344.807C336.801 345.826 338.908 346.123 340.905 345.637C342.902 345.151 344.636 343.918 345.751 342.193C349.267 336.795 350.524 327.34 347.569 319.651L335.169 315.186Z" fill="#E48868"/>
<path d="M423.649 183.547C433.246 181.135 443.064 179.707 452.95 179.287C461.821 179.013 470.607 181.073 478.429 185.262L481.215 294.273L424.176 294.528L423.649 183.547Z" fill="white"/>
<path d="M438.546 180.153C438.546 180.153 430.376 180.153 413.797 187.537L404.54 272.648L395.809 313.489L444.508 313.234C444.508 313.234 448.976 214.696 438.546 180.153Z" fill="#E8A748"/>
<path d="M408.141 235.863L420.184 223.472L404.54 272.665L408.141 235.863Z" fill="#D18C38"/>
<path d="M463.465 180.153C463.465 180.153 472.569 233.351 469.665 312.657L497.369 311.469L490.235 266.724L491.033 210.911C491.033 210.911 493.139 182.699 463.465 180.153Z" fill="#E8A748"/>
<path d="M487.755 195.481L514.814 259.34L491.22 276.229L475.202 215.85L487.755 195.481Z" fill="#E8A748"/>
<path d="M556.769 318.055L540.87 300.147L526.347 305.29L545.456 325.965L556.769 318.055Z" fill="#E48868"/>
<path d="M514.814 259.34L555.699 308.345L533.787 325.694L491.22 276.229L514.814 259.34Z" fill="#E8A748"/>
<path d="M544.318 325.371C544.318 325.371 541.482 328.766 545.881 336.031C547.644 338.866 549.724 341.491 552.081 343.857C553.343 345.129 554.992 345.946 556.769 346.179C558.546 346.413 560.351 346.05 561.899 345.147L570.001 340.173C571.763 339.114 573.052 337.421 573.605 335.442C574.158 333.463 573.932 331.348 572.974 329.53C570.018 323.792 562.443 318.021 554.289 316.782L544.318 325.371Z" fill="#E48868"/>
<path d="M491.237 276.229L486.481 221.214C486.481 221.214 499.781 286.177 500.392 286.872L491.237 276.229Z" fill="#D18C38"/>
<path d="M432.431 150.226C432.431 150.226 427.251 163.144 439.379 163.076C451.507 163.008 441.349 146.203 441.349 146.203L432.431 150.226Z" fill="#511917"/>
<path d="M489.963 141.111C490.032 142.66 489.64 144.194 488.836 145.52C488.033 146.847 486.854 147.905 485.449 148.562C484.044 149.219 482.475 149.445 480.941 149.212C479.408 148.978 477.977 148.295 476.832 147.25C475.686 146.205 474.876 144.843 474.504 143.338C474.132 141.833 474.215 140.252 474.743 138.793C475.27 137.335 476.218 136.066 477.467 135.146C478.715 134.226 480.209 133.697 481.759 133.625C482.79 133.577 483.82 133.733 484.79 134.083C485.761 134.434 486.652 134.972 487.415 135.667C488.177 136.363 488.794 137.201 489.231 138.135C489.669 139.069 489.917 140.08 489.963 141.111Z" fill="#D06C44"/>
<path d="M438.92 180.034L434.656 143.334L460.866 148.291L463.363 178.71C463.923 185.5 460.951 189.709 454.207 190.269L452.101 190.456C445.307 191.016 439.48 186.756 438.92 180.034Z" fill="#E48868"/>
<path d="M438.189 152.28C438.189 152.28 437.425 183.972 463.295 178.71L462.123 162.057L438.189 152.28Z" fill="#D06C44"/>
<path d="M461.155 174.11H460.288C454.114 174.391 448.082 172.209 443.517 168.045C438.952 163.882 436.229 158.076 435.947 151.907L434.249 120.503C434.175 118.908 434.738 117.348 435.815 116.167C436.891 114.986 438.393 114.281 439.99 114.206L470.565 112.814C471.978 112.75 473.39 112.965 474.72 113.447C476.05 113.928 477.272 114.667 478.316 115.621C479.361 116.574 480.207 117.724 480.806 119.005C481.405 120.285 481.746 121.671 481.81 123.084L483.389 149.751C483.533 152.81 483.072 155.867 482.032 158.748C480.992 161.629 479.393 164.276 477.328 166.539C475.262 168.802 472.771 170.635 469.996 171.934C467.22 173.233 464.216 173.972 461.155 174.11Z" fill="#E48868"/>
<path d="M461.8 140.907C461.787 141.282 461.662 141.645 461.443 141.949C461.224 142.254 460.919 142.486 460.568 142.618C460.216 142.75 459.833 142.775 459.468 142.69C459.102 142.605 458.77 142.414 458.513 142.14C458.255 141.867 458.085 141.524 458.023 141.154C457.961 140.783 458.009 140.403 458.163 140.061C458.316 139.719 458.568 139.429 458.886 139.229C459.203 139.03 459.573 138.928 459.949 138.938C460.2 138.945 460.448 139.001 460.677 139.104C460.906 139.206 461.113 139.353 461.285 139.537C461.457 139.72 461.592 139.935 461.68 140.17C461.768 140.406 461.809 140.656 461.8 140.907Z" fill="#1C2027"/>
<path d="M478.022 140.126C478.008 140.502 477.883 140.865 477.663 141.17C477.443 141.475 477.137 141.707 476.785 141.839C476.432 141.97 476.049 141.994 475.683 141.907C475.317 141.821 474.985 141.628 474.728 141.353C474.472 141.077 474.303 140.733 474.243 140.362C474.182 139.99 474.234 139.61 474.39 139.268C474.546 138.926 474.8 138.638 475.12 138.44C475.44 138.242 475.811 138.144 476.187 138.157C476.438 138.164 476.685 138.22 476.913 138.323C477.142 138.426 477.347 138.573 477.518 138.757C477.689 138.94 477.822 139.156 477.908 139.391C477.994 139.626 478.033 139.876 478.022 140.126Z" fill="#1C2027"/>
<path d="M470.837 142.18L471.465 148.104C471.465 148.104 471.244 150.99 467.117 150.039" stroke="#D06C44" stroke-width="0.75" stroke-linecap="round" stroke-linejoin="round"/>
<path d="M454.513 134.881H454.87L463.363 134.185C463.592 134.17 463.817 134.109 464.022 134.005C464.227 133.902 464.409 133.757 464.557 133.581C464.704 133.405 464.815 133.201 464.881 132.981C464.947 132.76 464.968 132.529 464.943 132.301C464.928 132.073 464.867 131.851 464.764 131.647C464.661 131.443 464.519 131.262 464.344 131.115C464.17 130.967 463.967 130.856 463.749 130.789C463.531 130.722 463.301 130.699 463.074 130.722L454.496 131.418C454.046 131.418 453.614 131.597 453.295 131.915C452.977 132.234 452.798 132.665 452.798 133.116C452.798 133.566 452.977 133.998 453.295 134.316C453.614 134.634 454.046 134.813 454.496 134.813L454.513 134.881Z" fill="#511917"/>
<path d="M474.064 133.642C474.177 133.659 474.291 133.659 474.404 133.642L479.652 133.217C479.876 133.199 480.093 133.136 480.292 133.033C480.49 132.93 480.667 132.789 480.811 132.618C480.956 132.447 481.065 132.25 481.133 132.036C481.2 131.823 481.226 131.599 481.207 131.376C481.188 131.153 481.125 130.936 481.022 130.737C480.919 130.538 480.778 130.362 480.607 130.218C480.436 130.073 480.238 129.964 480.025 129.897C479.811 129.829 479.587 129.804 479.364 129.823L474.132 130.247C473.681 130.247 473.249 130.426 472.931 130.744C472.612 131.062 472.433 131.494 472.433 131.944C472.433 132.395 472.612 132.826 472.931 133.145C473.249 133.463 473.681 133.642 474.132 133.642H474.064Z" fill="#511917"/>
<path d="M458.505 154.062H471.686C471.686 154.062 471.856 159.155 464.603 159.155C463.866 159.232 463.121 159.16 462.412 158.944C461.703 158.728 461.045 158.372 460.476 157.897C459.907 157.422 459.44 156.838 459.101 156.18C458.763 155.521 458.56 154.801 458.505 154.062Z" fill="white"/>
<path d="M435.387 144.149C435.387 144.149 449.23 141.722 443.88 123.78C443.88 123.78 443.098 117.075 457.095 119.383C471.092 121.692 488.655 122.591 488.825 112.593C489.029 101.424 476.833 99.5227 466.098 102.782C455.362 106.041 443.302 105.769 437.357 106.533C431.412 107.297 426.435 110.76 427.166 118.789C427.896 126.818 430.563 141.807 430.24 143.419C429.917 145.032 435.387 144.149 435.387 144.149Z" fill="#511917"/>
<path d="M439.362 145.202C439.427 146.75 439.032 148.283 438.226 149.607C437.421 150.931 436.241 151.987 434.835 152.641C433.429 153.296 431.861 153.519 430.328 153.284C428.796 153.048 427.367 152.364 426.223 151.318C425.079 150.272 424.271 148.91 423.901 147.406C423.53 145.901 423.614 144.32 424.142 142.863C424.67 141.406 425.618 140.138 426.867 139.219C428.115 138.299 429.608 137.771 431.157 137.699C433.241 137.607 435.276 138.345 436.814 139.752C438.353 141.159 439.269 143.12 439.362 145.202Z" fill="#E48868"/>
<path d="M110.324 450.135L112.125 465.786L43.1616 470.556L47.2552 449.337L110.324 450.135Z" fill="#4D6E8E"/>
<path d="M51.8754 540.118L61.0649 554.665C61.6136 555.621 61.9613 556.678 62.0869 557.773C62.2125 558.867 62.1133 559.976 61.7953 561.031L61.2177 563L24.1711 552.085L30.0823 533.702L51.8754 540.118Z" fill="#202020"/>
<path d="M46.253 454.549L29.0971 527.098L58.8397 536.723L83.6224 459.607L46.253 454.549Z" fill="#4D6E8E"/>
<path d="M27.4495 522.923L62.7125 531.648L59.2813 541.782L25.2413 533.108L27.4495 522.923Z" fill="#729AB8"/>
<path d="M110.443 455.72L124.61 529.475L96.9394 535.773L75.571 457.859L110.443 455.72Z" fill="#4D6E8E"/>
<path d="M79.5458 472.338L88.2257 469.028C88.2257 469.028 89.2618 507.798 89.5845 508.969L79.5458 472.338Z" fill="#426175"/>
<path d="M122.843 535.348L138.131 544.226C139.03 544.849 139.794 545.646 140.378 546.571C140.962 547.495 141.353 548.528 141.528 549.607L141.868 551.644L103.802 558.077L100.303 539.134L122.843 535.348Z" fill="#202020"/>
<path d="M92.9817 531.071L125.476 523.771L127.701 534.126L96.1411 540.933L92.9817 531.071Z" fill="#729AB8"/>
<path d="M159.771 355.111L146.488 370.897L134.801 365.313L148.39 350.833L159.771 355.111Z" fill="#E48868"/>
<path d="M156.951 357.385C156.951 357.385 160.128 359.083 165.189 354.313C167.159 352.433 168.903 350.331 170.387 348.049C171.198 346.827 171.575 345.368 171.458 343.906C171.341 342.445 170.737 341.064 169.742 339.986L164.391 334.368C163.254 333.135 161.688 332.383 160.015 332.266C158.341 332.149 156.686 332.676 155.389 333.74C153.043 335.908 151.197 338.56 149.977 341.511C148.757 344.462 148.192 347.643 148.322 350.833L156.951 357.385Z" fill="#E48868"/>
<path d="M143.311 349.9L159.159 363.649L129.196 398.379C128.372 399.359 127.363 400.168 126.226 400.758C125.09 401.348 123.848 401.708 122.572 401.819C121.295 401.929 120.01 401.787 118.789 401.401C117.568 401.015 116.434 400.392 115.454 399.568L113.246 397.734C109.118 394.339 109.849 388.755 113.365 384.63L143.311 349.9Z" fill="#7BA1BF"/>
<path d="M88.1746 376.635C79.8344 369.336 79.8684 352.972 90.6716 355.416C95.7774 356.953 100.614 359.272 105.008 362.291C105.008 362.291 121.603 374.326 128.975 380.352C133.833 384.324 133.239 392.557 129.077 397.242C127.144 399.412 124.432 400.731 121.531 400.912C118.629 401.093 115.774 400.122 113.586 398.21L88.1746 376.635Z" fill="#7BA1BF"/>
<path d="M104.108 390.164L101.696 379.028L115.454 399.568L104.108 390.164Z" fill="#6C95AE"/>
<path d="M12.3149 446.706L16.9181 427.117L29.5557 426.829L24.1032 445.433L12.3149 446.706Z" fill="#E48868"/>
<path d="M13.7757 443.481C13.7757 443.481 10.2595 443.481 7.94943 449.796C7.08099 452.3 6.51086 454.898 6.25082 457.536C6.07773 458.964 6.38858 460.409 7.13372 461.64C7.87886 462.871 9.01528 463.816 10.3614 464.326L17.4956 466.855C19.0267 467.434 20.7214 467.404 22.2314 466.773C23.7414 466.141 24.9521 464.956 25.6149 463.46C26.695 460.542 27.1253 457.423 26.876 454.321C26.6266 451.22 25.7036 448.21 24.1711 445.501L13.7757 443.481Z" fill="#E48868"/>
<path d="M58.1263 356.689C61.7575 361.399 63.7603 367.159 63.8336 373.104C63.8336 375.294 62.8315 378.892 59.1115 383.747C59.1115 383.747 45.3188 399.313 38.9491 406.391C34.7365 411.042 26.5323 410.041 21.963 405.661C17.6485 401.418 18.8376 395.477 21.7592 390.147C36.5031 363.598 58.1263 356.689 58.1263 356.689Z" fill="#7BA1BF"/>
<path d="M30.3201 441.919L10.0388 436.471L19.3811 395.103C20.0112 392.618 21.5979 390.482 23.796 389.159C25.994 387.837 28.6256 387.435 31.1185 388.042L33.9042 388.721C39.1359 390.028 40.8854 395.307 39.5775 400.603L30.3201 441.919Z" fill="#7BA1BF"/>
<path d="M75.7919 353.821C75.7919 353.821 89.3807 352.565 95.3598 359.864C103.717 370.049 114.35 450.135 114.35 450.135C114.35 450.135 83.6394 459.607 38.4565 452.58L47.4421 377.721C47.4421 377.721 41.7008 353.668 75.7919 353.821Z" fill="#7BA1BF"/>
<path d="M44.7923 399.788L53.3023 390.231L42.2614 420.837L44.7923 399.788Z" fill="#6C95AE"/>
<path d="M109.413 323.351C111.118 319.471 109.353 314.945 105.471 313.241C101.588 311.537 97.059 313.301 95.3539 317.181C93.6489 321.06 95.4139 325.587 99.2963 327.291C103.179 328.995 107.708 327.231 109.413 323.351Z" fill="#D06C44"/>
<path d="M48.3083 309.381C47.8157 325.269 59.6041 341.854 75.486 342.94C91.368 344.026 104.532 325.626 105.653 309.771C106.774 293.917 102.137 282.204 80.7347 281.508C61.6934 280.88 48.9029 289.911 48.3083 309.381Z" fill="#0E162D"/>
<path d="M64.6489 328.444L83.9111 332.076L84.3867 353.872C84.4361 356.242 83.5712 358.541 81.9712 360.291C80.3711 362.042 78.1586 363.111 75.7918 363.276C74.5656 363.361 73.3347 363.2 72.1713 362.804C71.0078 362.408 69.9352 361.784 69.0161 360.968C68.0971 360.152 67.3501 359.162 66.819 358.054C66.2879 356.946 65.9832 355.744 65.9229 354.517L64.6489 328.444Z" fill="#E48868"/>
<path d="M63.8336 336.32C63.8336 336.32 67.8933 356.197 84.3188 351.903L84.1829 343.755L63.8336 336.32Z" fill="#D06C44"/>
<path d="M82.6372 347.676H81.8049C78.8846 347.78 75.9723 347.308 73.2346 346.287C70.4969 345.266 67.9875 343.715 65.8498 341.724C63.7122 339.733 61.9883 337.34 60.7767 334.683C59.5652 332.025 58.8896 329.155 58.7888 326.237L57.8885 301.148C57.8469 299.637 58.4 298.17 59.4291 297.062C60.4582 295.955 61.8811 295.295 63.392 295.224L92.676 294.189C94.0299 294.123 95.3834 294.327 96.6572 294.79C97.931 295.253 99.0996 295.966 100.095 296.886C101.089 297.806 101.891 298.915 102.451 300.148C103.012 301.381 103.321 302.714 103.36 304.068L104.159 324.675C104.263 327.599 103.788 330.515 102.762 333.255C101.736 335.995 100.178 338.506 98.1788 340.643C96.1792 342.78 93.7769 344.501 91.1099 345.708C88.4428 346.915 85.5635 347.584 82.6372 347.676Z" fill="#E48868"/>
<path d="M104.634 299.909L92.2683 288.163L65.7701 292.457C65.2944 292.106 64.7949 291.789 64.2753 291.507L59.1795 293.51L53.3193 304.153L55.9521 310.586L54.0667 321.942H65.5662L65.0906 310.179C69.3711 306.207 70.6451 302.778 70.4412 299.994C86.0344 305.086 104.634 299.909 104.634 299.909Z" fill="#0E162D"/>
<path d="M62.6785 321.671C62.7245 323.182 62.3215 324.674 61.5203 325.957C60.719 327.24 59.5555 328.257 58.1765 328.88C56.7974 329.502 55.2647 329.703 53.7716 329.456C52.2786 329.21 50.8921 328.527 49.7871 327.493C48.6821 326.46 47.9081 325.123 47.5628 323.65C47.2174 322.178 47.3163 320.636 47.8467 319.22C48.3772 317.803 49.3156 316.576 50.5435 315.692C51.7713 314.808 53.2337 314.307 54.7461 314.253C55.7544 314.219 56.7596 314.384 57.7042 314.738C58.6487 315.093 59.5141 315.63 60.2508 316.319C60.9875 317.008 61.5812 317.835 61.9977 318.753C62.4143 319.672 62.6456 320.663 62.6785 321.671Z" fill="#E48868"/>
<path d="M82.0767 319.566C82.0767 320.016 81.8977 320.448 81.5791 320.766C81.2606 321.084 80.8286 321.263 80.3781 321.263C79.9276 321.263 79.4955 321.084 79.177 320.766C78.8584 320.448 78.6794 320.016 78.6794 319.566C78.6792 319.336 78.7257 319.108 78.8164 318.896C78.907 318.684 79.0398 318.493 79.2066 318.334C79.3734 318.176 79.5709 318.052 79.7868 317.972C80.0028 317.892 80.2329 317.857 80.463 317.868C80.8986 317.89 81.3091 318.079 81.6095 318.395C81.9099 318.711 82.0772 319.13 82.0767 319.566Z" fill="#0C162E"/>
<path d="M98.1285 319.057C98.1185 319.279 98.0646 319.498 97.9699 319.7C97.8753 319.902 97.7418 320.084 97.5769 320.234C97.4121 320.385 97.2192 320.502 97.0093 320.578C96.7994 320.654 96.5765 320.688 96.3534 320.678C96.1304 320.668 95.9115 320.614 95.7092 320.519C95.507 320.425 95.3254 320.291 95.1747 320.126C95.0241 319.962 94.9074 319.769 94.8313 319.559C94.7552 319.349 94.7212 319.127 94.7313 318.904C94.7313 318.454 94.9102 318.022 95.2288 317.703C95.5473 317.385 95.9794 317.206 96.4299 317.206C96.6664 317.205 96.9005 317.254 97.1173 317.348C97.334 317.443 97.5285 317.582 97.6884 317.756C97.8483 317.93 97.9701 318.136 98.0459 318.36C98.1216 318.584 98.1498 318.821 98.1285 319.057Z" fill="#0C162E"/>
<path d="M91.8097 322.944L92.2003 325.167C92.2003 325.167 91.9795 327.748 88.2766 326.865" stroke="#D06C44" stroke-width="0.75" stroke-linecap="round" stroke-linejoin="round"/>
<path d="M75.6559 311.995C75.7628 312.012 75.8717 312.012 75.9786 311.995L83.6903 311.469C83.8955 311.454 84.0959 311.4 84.2799 311.308C84.464 311.216 84.6281 311.089 84.763 310.933C84.8978 310.778 85.0008 310.598 85.0659 310.403C85.1311 310.208 85.1571 310.002 85.1426 309.797C85.1281 309.592 85.0733 309.392 84.9814 309.208C84.8895 309.024 84.7622 308.86 84.6068 308.725C84.4515 308.59 84.2711 308.487 84.0759 308.422C83.8808 308.357 83.6747 308.331 83.4695 308.346L75.7578 308.889C75.5494 308.901 75.3456 308.956 75.1585 309.049C74.9714 309.142 74.8049 309.271 74.6687 309.429C74.5325 309.587 74.4295 309.771 74.3656 309.97C74.3018 310.169 74.2785 310.378 74.297 310.586C74.3348 310.938 74.4889 311.268 74.735 311.523C74.981 311.778 75.305 311.944 75.6559 311.995Z" fill="#0C162E"/>
<path d="M94.7313 311.112H95.054L99.7761 310.773C99.9914 310.774 100.205 310.731 100.402 310.646C100.6 310.561 100.778 310.436 100.925 310.279C101.073 310.122 101.186 309.936 101.258 309.733C101.33 309.531 101.359 309.315 101.344 309.101C101.328 308.886 101.269 308.677 101.169 308.486C101.069 308.296 100.931 308.128 100.763 307.993C100.595 307.859 100.401 307.76 100.193 307.704C99.9855 307.648 99.7683 307.635 99.5553 307.666L94.8332 307.989C94.4464 308.015 94.0828 308.183 93.8133 308.462C93.5438 308.74 93.3875 309.109 93.3748 309.496C93.3621 309.883 93.4939 310.261 93.7446 310.557C93.9953 310.853 94.3469 311.044 94.7313 311.095V311.112Z" fill="#0C162E"/>
<path d="M76.9808 330.294H94.1028C94.1028 330.294 94.3236 336.829 84.9303 336.829C77.3206 336.829 76.9808 330.294 76.9808 330.294Z" fill="white"/>
<path d="M88.7352 354.992C88.7352 354.992 84.7095 353.413 75.7918 353.821C75.7918 353.821 63.9015 354.092 58.8057 356.316C58.8057 356.316 61.3027 368.198 78.4416 366.84C93.2704 365.72 88.7352 354.992 88.7352 354.992Z" fill="#E48868"/>
<path d="M288.355 162.482C282.746 155.732 278.459 147.987 275.718 139.651C271.998 129.11 259.768 133.387 259.768 133.387C259.768 133.387 249.576 120.317 234.289 124.9C219.001 129.483 213.651 141.993 213.328 154.945C213.005 167.897 202.831 168.253 194.983 183.225C181.122 209.672 204.461 231.925 246.926 225.747V225.339C251.991 226.742 257.265 227.236 262.503 226.799C313.529 223.727 308.603 186.246 288.355 162.482Z" fill="#511917"/>
<path d="M303.983 489.89L299.362 526.08L312 551.355C312 551.355 297.834 554.479 291.617 542.63C285.4 530.782 286.997 525.146 286.997 525.146L284.788 482.811L303.983 489.89Z" fill="#E48868"/>
<path d="M310.539 548.504C310.539 548.504 324.315 554.479 325.827 561.235H296.101L290.75 553.426L287.132 561.235H283.48C283.48 561.235 280.083 533.922 286.742 525.18L310.539 548.504Z" fill="#20202A"/>
<path d="M271.318 275.364L312.561 375.565V508.189L272.83 508.969L271.624 383.849L232.675 315.017L271.318 275.364Z" fill="#96BED9"/>
<path d="M272.609 318.972L258.749 329.021L259.581 362.58L268.55 378.044L265.577 335.522L272.609 318.972Z" fill="#89B3CB"/>
<path d="M194.304 474.715L168.264 500.312L162.54 527.981C162.54 527.981 149.46 521.667 151.974 508.545C154.488 495.424 159.159 491.961 159.159 491.961L183.653 457.332L194.304 474.715Z" fill="#E48868"/>
<path d="M163.185 524.739C163.185 524.739 170.302 537.962 167.347 544.243L143.923 525.791L144.551 516.37L136.891 520.258L134.02 518C134.02 518 148.237 494.422 158.888 491.689L163.185 524.739Z" fill="#20202A"/>
<path d="M229.533 277.129C223.938 281.074 219.775 286.725 217.668 293.235C215.561 299.745 215.624 306.763 217.846 313.234V378.366L160.62 471.286L187.9 499.056L251.496 404.694C254.308 402.005 256.528 398.759 258.014 395.164C259.5 391.569 260.219 387.704 260.125 383.815L258.273 309.856L269.331 295.971L271.318 275.364L229.533 277.129Z" fill="#96BED9"/>
<path d="M275.718 239.802L293.672 280.134C294.712 282.459 294.795 285.1 293.901 287.486C293.008 289.871 291.211 291.81 288.899 292.882C286.59 293.956 283.95 294.079 281.55 293.225C279.151 292.37 277.184 290.607 276.075 288.315L253.993 242.653L275.718 239.802Z" fill="#E48868"/>
<path d="M251.937 208.042C251.937 208.042 264.626 202.763 272.558 218.753C282.071 237.934 286.759 249.783 286.759 249.783L258.307 260.935C258.307 260.935 231.316 216.614 251.937 208.042Z" fill="#486981"/>
<path d="M333.216 318.751L286.674 273.327L277.705 290.828L323.601 325.405L333.216 318.751Z" fill="#E48868"/>
<path d="M322.718 322.74C322.718 322.74 322.226 326.865 326.523 332.348C328.221 334.476 330.166 336.396 332.315 338.068C333.462 338.985 334.883 339.491 336.352 339.506C337.82 339.522 339.252 339.045 340.418 338.153L346.499 333.315C347.827 332.294 348.713 330.803 348.975 329.148C349.237 327.494 348.856 325.802 347.909 324.421C344.953 320.058 336.834 315.933 330.09 315.645L322.718 322.74Z" fill="#E48868"/>
<path d="M225.881 234.726L197.973 271.392C196.551 273.506 194.354 274.978 191.857 275.49C189.359 276.001 186.761 275.511 184.621 274.124C182.483 272.739 180.975 270.57 180.422 268.083C179.869 265.597 180.316 262.993 181.666 260.833L211.884 217.819L225.881 234.726Z" fill="#E48868"/>
<path d="M164.255 326.797C164.255 326.797 173.598 333.078 173.716 340.377C173.724 340.718 173.64 341.055 173.474 341.352C173.308 341.65 173.065 341.899 172.771 342.072C172.476 342.245 172.141 342.336 171.8 342.336C171.459 342.337 171.124 342.246 170.829 342.074L167.245 339.969L165.308 345.537C164.74 347.611 163.555 349.463 161.911 350.85C161.239 351.496 160.374 351.907 159.448 352.021C157.155 352.106 136.449 349.526 158.191 323.164L164.255 326.797Z" fill="#E48868"/>
<path d="M235.308 204.562C235.308 204.562 246.536 212.489 237.193 227.716C230.589 238.556 222.87 248.677 214.16 257.914L191.433 237.442C191.433 237.442 221.362 188.487 235.308 204.562Z" fill="#4D6E8E"/>
<path d="M166.395 328.444L200.232 265.637L180.783 262.65L158.208 323.113L166.395 328.444Z" fill="#E48868"/>
<path d="M249.491 198.298C249.491 198.298 259.156 195.566 269.79 210.181C269.79 210.181 290.071 224.032 273.187 239.717L271.284 275.364L229.499 277.061L217.031 223.71C213.022 214.17 215.927 204.715 227.987 200.217C234.797 197.421 242.294 196.752 249.491 198.298Z" fill="#4D6E8E"/>
<path d="M222.67 248.204L233.117 234.064L227.885 270.135L222.67 248.204Z" fill="#486981"/>
<path d="M279.115 154.113C279.115 160.472 277.229 166.688 273.696 171.976C270.163 177.264 265.141 181.386 259.264 183.824C253.387 186.261 246.92 186.903 240.678 185.668C234.436 184.434 228.701 181.379 224.196 176.889C219.691 172.399 216.618 166.675 215.367 160.441C214.115 154.206 214.74 147.741 217.164 141.862C219.587 135.983 223.699 130.953 228.982 127.409C234.264 123.864 240.479 121.963 246.841 121.946C251.076 121.933 255.272 122.755 259.188 124.366C263.104 125.977 266.664 128.344 269.662 131.333C272.661 134.321 275.039 137.872 276.661 141.781C278.283 145.69 279.117 149.881 279.115 154.113Z" fill="#511917"/>
<path d="M236.021 198.536L236.14 169.832L256.727 169.917L256.625 198.638C256.594 201.356 255.489 203.951 253.552 205.859C251.614 207.767 249.001 208.832 246.281 208.823C243.56 208.805 240.955 207.714 239.034 205.788C237.113 203.862 236.03 201.256 236.021 198.536Z" fill="#E48868"/>
<path d="M235.393 171.36C235.393 171.36 237.567 195.956 256.592 195.566V183.242L235.393 171.36Z" fill="#D06C44"/>
<path d="M265.526 164.077C265.526 165.669 265.998 167.224 266.883 168.548C267.768 169.871 269.025 170.902 270.496 171.511C271.968 172.12 273.586 172.279 275.148 171.969C276.71 171.658 278.145 170.892 279.271 169.767C280.397 168.642 281.164 167.208 281.474 165.647C281.785 164.086 281.625 162.469 281.016 160.998C280.407 159.528 279.375 158.272 278.051 157.387C276.727 156.503 275.17 156.031 273.578 156.031C271.444 156.036 269.398 156.885 267.889 158.393C266.38 159.901 265.531 161.945 265.526 164.077Z" fill="#D06C44"/>
<path d="M253.636 190.626C266.002 190.626 276.125 183.174 276.125 170.816V149.598C276.125 140.483 266.155 130.926 260.838 130.926L240.998 136.477C238.403 136.486 235.917 137.521 234.084 139.356C232.25 141.192 231.219 143.678 231.214 146.271V167.438C231.078 179.694 243.138 190.626 253.636 190.626Z" fill="#E48868"/>
<path d="M255.012 161.192C254.973 161.516 254.841 161.822 254.632 162.073C254.423 162.324 254.146 162.51 253.834 162.608C253.523 162.705 253.189 162.711 252.874 162.625C252.559 162.538 252.276 162.362 252.058 162.119C251.841 161.875 251.698 161.574 251.647 161.251C251.597 160.929 251.64 160.598 251.773 160.3C251.905 160.001 252.121 159.747 252.394 159.568C252.667 159.389 252.986 159.293 253.313 159.291C253.554 159.289 253.793 159.338 254.014 159.436C254.235 159.534 254.432 159.678 254.593 159.857C254.753 160.037 254.874 160.249 254.946 160.479C255.018 160.71 255.041 160.952 255.012 161.192Z" fill="#1C2027"/>
<path d="M271.318 161.056C271.285 161.526 271.065 161.964 270.708 162.273C270.352 162.582 269.887 162.736 269.416 162.703C268.945 162.669 268.507 162.45 268.198 162.093C267.889 161.736 267.735 161.272 267.768 160.801C267.785 160.568 267.848 160.341 267.952 160.132C268.057 159.923 268.202 159.737 268.378 159.584C268.555 159.431 268.76 159.315 268.982 159.241C269.204 159.167 269.438 159.138 269.671 159.155C269.904 159.172 270.131 159.234 270.34 159.339C270.549 159.443 270.736 159.588 270.889 159.764C271.042 159.941 271.158 160.146 271.232 160.367C271.306 160.589 271.335 160.823 271.318 161.056Z" fill="#1C2027"/>
<path d="M262.774 164.875L264.847 168.712C264.847 168.712 264.541 171.411 260.702 170.409" stroke="#D06C44" stroke-width="0.75" stroke-linecap="round" stroke-linejoin="round"/>
<path d="M248.438 155.879H248.778L256.829 155.539C257.085 155.602 257.352 155.604 257.609 155.545C257.865 155.487 258.105 155.37 258.308 155.203C258.512 155.036 258.674 154.824 258.782 154.584C258.889 154.344 258.94 154.082 258.929 153.819C258.918 153.557 258.846 153.3 258.719 153.069C258.591 152.839 258.412 152.642 258.195 152.492C257.979 152.343 257.73 152.246 257.469 152.209C257.209 152.172 256.943 152.197 256.693 152.28L248.642 152.62C248.287 152.703 247.969 152.899 247.734 153.177C247.499 153.455 247.36 153.802 247.337 154.165C247.314 154.529 247.409 154.89 247.607 155.195C247.806 155.501 248.097 155.734 248.438 155.862V155.879Z" fill="#511917"/>
<path d="M267.87 155.437H268.193L273.119 155.234C273.468 155.117 273.77 154.89 273.979 154.587C274.188 154.284 274.293 153.921 274.278 153.553C274.262 153.185 274.128 152.832 273.894 152.548C273.661 152.263 273.341 152.062 272.983 151.975L268.057 152.178C267.703 152.264 267.387 152.461 267.153 152.741C266.92 153.02 266.783 153.367 266.762 153.73C266.741 154.093 266.838 154.454 267.037 154.758C267.237 155.062 267.529 155.295 267.87 155.42V155.437Z" fill="#511917"/>
<path d="M264.847 175.06C261.499 175.809 257.992 175.282 255.012 173.583" stroke="#D06C44" stroke-width="0.75" stroke-linecap="round" stroke-linejoin="round"/>
<path d="M268.737 132.623C268.737 132.623 246.383 159.155 224.08 158.085C223.04 153.255 223.453 148.224 225.266 143.628C227.08 139.031 230.213 135.072 234.272 132.25C248.642 121.827 260.651 129.568 260.651 129.568L268.737 132.623Z" fill="#511917"/>
<path d="M261.721 133.268C265.689 138.652 270.535 143.329 276.057 147.103C276.057 147.103 273.051 131.707 259.547 129.636L261.721 133.268Z" fill="#511917"/>
<path d="M239.554 150.769C239.554 150.769 242.119 166.352 234.459 167.744L232.42 152.976L239.554 150.769Z" fill="#511917"/>
<path d="M221.176 164.077C221.176 165.669 221.648 167.224 222.532 168.548C223.417 169.871 224.675 170.902 226.146 171.511C227.617 172.12 229.236 172.279 230.798 171.969C232.36 171.658 233.794 170.892 234.92 169.767C236.046 168.642 236.813 167.208 237.124 165.647C237.434 164.086 237.275 162.469 236.665 160.998C236.056 159.528 235.024 158.272 233.7 157.387C232.376 156.503 230.819 156.031 229.227 156.031C227.093 156.036 225.048 156.885 223.539 158.393C222.03 159.901 221.18 161.945 221.176 164.077Z" fill="#E48868"/>
</svg>
